<?xml version="1.0" encoding="UTF-8"?><svg id="Layer_2" xmlns="http://www.w3.org/2000/svg" xmlns:xlink="http://www.w3.org/1999/xlink" viewBox="0 0 949.12 852.01"><defs><style>.cls-1{fill:url(#linear-gradient);}.cls-2{fill:url(#linear-gradient-8);}.cls-3{fill:url(#linear-gradient-9);}.cls-4{fill:url(#linear-gradient-3);}.cls-5{fill:url(#linear-gradient-4);}.cls-6{fill:url(#linear-gradient-2);}.cls-7{fill:url(#linear-gradient-6);}.cls-8{fill:url(#linear-gradient-7);}.cls-9{fill:url(#linear-gradient-5);}.cls-10{fill:url(#linear-gradient-41);}.cls-11{fill:url(#linear-gradient-40);}.cls-12{fill:url(#linear-gradient-14);}.cls-13{fill:url(#linear-gradient-18);}.cls-14{fill:url(#linear-gradient-22);}.cls-15{fill:url(#linear-gradient-20);}.cls-16{fill:url(#linear-gradient-21);}.cls-17{fill:url(#linear-gradient-23);}.cls-18{fill:url(#linear-gradient-15);}.cls-19{fill:url(#linear-gradient-19);}.cls-20{fill:url(#linear-gradient-16);}.cls-21{fill:url(#linear-gradient-17);}.cls-22{fill:url(#linear-gradient-13);}.cls-23{fill:url(#linear-gradient-12);}.cls-24{fill:url(#linear-gradient-10);}.cls-25{fill:url(#linear-gradient-11);}.cls-26{fill:url(#linear-gradient-27);}.cls-27{fill:url(#linear-gradient-24);}.cls-28{fill:url(#linear-gradient-26);}.cls-29{fill:url(#linear-gradient-38);}.cls-30{fill:url(#linear-gradient-35);}.cls-31{fill:url(#linear-gradient-37);}.cls-32{fill:url(#linear-gradient-34);}.cls-33{fill:url(#linear-gradient-39);}.cls-34{fill:url(#linear-gradient-36);}.cls-35{fill:url(#linear-gradient-25);}.cls-36{fill:url(#linear-gradient-28);}.cls-37{fill:url(#linear-gradient-29);}.cls-38{fill:url(#linear-gradient-33);}.cls-39{fill:url(#linear-gradient-30);}.cls-40{fill:url(#linear-gradient-32);}.cls-41{fill:url(#linear-gradient-31);}</style><linearGradient id="linear-gradient" x1="320.63" y1="115.28" x2="629.14" y2="115.28" gradientUnits="userSpaceOnUse"><stop offset="0" stop-color="#666"/><stop offset=".15" stop-color="#e6e6e6"/><stop offset=".35" stop-color="#b3b3b3"/><stop offset=".5" stop-color="#fff"/><stop offset=".65" stop-color="#b3b3b3"/><stop offset=".85" stop-color="#e6e6e6"/><stop offset="1" stop-color="#666"/></linearGradient><linearGradient id="linear-gradient-2" x1="320.63" y1="192.05" x2="629.14" y2="192.05" xlink:href="#linear-gradient"/><linearGradient id="linear-gradient-3" x1="320.63" y1="123.74" x2="629.14" y2="123.74" xlink:href="#linear-gradient"/><linearGradient id="linear-gradient-4" y1="187.39" x2="629.14" y2="187.39" xlink:href="#linear-gradient"/><linearGradient id="linear-gradient-5" x1="320.63" y1="115.28" x2="629.14" y2="115.28" xlink:href="#linear-gradient"/><linearGradient id="linear-gradient-6" x1="320.63" y1="192.05" x2="629.14" y2="192.05" xlink:href="#linear-gradient"/><linearGradient id="linear-gradient-7" x1="320.63" y1="187.39" x2="629.14" y2="187.39" xlink:href="#linear-gradient"/><linearGradient id="linear-gradient-8" x1="320.63" y1="267.39" x2="629.14" y2="267.39" xlink:href="#linear-gradient"/><linearGradient id="linear-gradient-9" x1="320.63" y1="404.38" x2="629.14" y2="404.38" xlink:href="#linear-gradient"/><linearGradient id="linear-gradient-10" x1="320.63" y1="263.63" x2="629.14" y2="263.63" xlink:href="#linear-gradient"/><linearGradient id="linear-gradient-11" x1="320.63" y1="440.5" x2="629.14" y2="440.5" xlink:href="#linear-gradient"/><linearGradient id="linear-gradient-12" x1="320.63" y1="263.63" x2="629.14" y2="263.63" xlink:href="#linear-gradient"/><linearGradient id="linear-gradient-13" x1="320.63" y1="440.47" x2="629.14" y2="440.47" xlink:href="#linear-gradient"/><linearGradient id="linear-gradient-14" x1="320.63" y1="62.78" x2="629.14" y2="62.78" xlink:href="#linear-gradient"/><linearGradient id="linear-gradient-15" x1="320.63" y1="62.67" x2="629.14" y2="62.67" xlink:href="#linear-gradient"/><linearGradient id="linear-gradient-16" x1="320.63" y1="269.13" x2="629.14" y2="269.13" xlink:href="#linear-gradient"/><linearGradient id="linear-gradient-17" y1="343.65" x2="629.14" y2="343.65" xlink:href="#linear-gradient"/><linearGradient id="linear-gradient-18" x1="320.63" y1="117.87" x2="629.14" y2="117.87" xlink:href="#linear-gradient"/><linearGradient id="linear-gradient-19" x1="320.63" y1="343.65" x2="629.14" y2="343.65" xlink:href="#linear-gradient"/><linearGradient id="linear-gradient-20" x1="320.63" y1="341.24" x2="629.14" y2="341.24" xlink:href="#linear-gradient"/><linearGradient id="linear-gradient-21" x1="320.63" y1="402.69" x2="629.14" y2="402.69" xlink:href="#linear-gradient"/><linearGradient id="linear-gradient-22" x1="320.63" y1="402.63" x2="629.14" y2="402.63" xlink:href="#linear-gradient"/><linearGradient id="linear-gradient-23" x1="320.63" y1="269.13" x2="629.14" y2="269.13" xlink:href="#linear-gradient"/><linearGradient id="linear-gradient-24" x1="320.63" y1="49.94" x2="629.14" y2="49.94" xlink:href="#linear-gradient"/><linearGradient id="linear-gradient-25" x1="320.63" y1="49.95" x2="629.14" y2="49.95" xlink:href="#linear-gradient"/><linearGradient id="linear-gradient-26" x1="320.63" y1="22.24" x2="629.14" y2="22.24" xlink:href="#linear-gradient"/><linearGradient id="linear-gradient-27" y1="341.17" x2="629.14" y2="341.17" xlink:href="#linear-gradient"/><linearGradient id="linear-gradient-28" x1="320.63" y1="117.87" x2="629.14" y2="117.87" xlink:href="#linear-gradient"/><linearGradient id="linear-gradient-29" x1="320.63" y1="22.35" x2="629.14" y2="22.35" xlink:href="#linear-gradient"/><linearGradient id="linear-gradient-30" x1="-3.42" y1="535.06" x2="34.13" y2="742.43" gradientUnits="userSpaceOnUse"><stop offset="0" stop-color="#949494"/><stop offset="1" stop-color="#fff"/></linearGradient><linearGradient id="linear-gradient-31" x1="115.87" y1="674.78" x2="241.24" y2="592.94" xlink:href="#linear-gradient-30"/><linearGradient id="linear-gradient-32" x1="337.61" y1="566.53" x2="541.34" y2="698.86" xlink:href="#linear-gradient-30"/><linearGradient id="linear-gradient-33" x1="607.17" y1="595.94" x2="800.45" y2="691.71" xlink:href="#linear-gradient-30"/><linearGradient id="linear-gradient-34" x1="901.16" y1="756.16" x2="815.22" y2="581.08" xlink:href="#linear-gradient-30"/><linearGradient id="linear-gradient-35" x1="208.31" y1="815.47" x2="905.53" y2="946.1" xlink:href="#linear-gradient-30"/><linearGradient id="linear-gradient-36" x1="210.72" y1="802.64" x2="907.93" y2="933.27" xlink:href="#linear-gradient-30"/><linearGradient id="linear-gradient-37" x1="213.91" y1="785.56" x2="911.13" y2="916.19" xlink:href="#linear-gradient-30"/><linearGradient id="linear-gradient-38" x1="216.45" y1="772.04" x2="913.67" y2="902.67" xlink:href="#linear-gradient-30"/><linearGradient id="linear-gradient-39" x1="219.04" y1="758.19" x2="916.26" y2="888.81" xlink:href="#linear-gradient-30"/><linearGradient id="linear-gradient-40" x1="220.94" y1="748.04" x2="918.16" y2="878.67" xlink:href="#linear-gradient-30"/><linearGradient id="linear-gradient-41" x1="223.81" y1="732.73" x2="921.03" y2="863.36" xlink:href="#linear-gradient-30"/></defs><g id="Layer_1-2"><g><g><path class="cls-1" d="m413.74,60.17c-9.8,13.46-20.35,28.19-31.31,43.86-.83,1.18-1.66,2.38-2.5,3.58,4.61,18.81,10.44,40.76,17.3,62.78,14.39-24.26,25.78-43.39,35.43-59.16-7.6-19.07-13.96-36.4-18.92-51.06Z"/><path class="cls-6" d="m434.13,260.51c11.54-21.7,23.1-44.05,33.68-65.75.27-.55.53-1.09.8-1.64-11.62-24.17-22.01-47.77-30.95-69.53-9.82,16.18-21.46,35.78-36.06,60.41,5.94,17.9,12.54,35.43,19.68,50.9,3.65,7.92,8,16.53,12.85,25.6Z"/><path class="cls-4" d="m474.56,180.71c11.5-24.32,21.52-47.5,29.98-68.44-11.79-19.15-20.93-33.1-29.98-45.5-9.05,12.4-18.19,26.35-29.98,45.5,8.46,20.95,18.48,44.12,29.98,68.44Z"/><path class="cls-5" d="m377.22,204.16l8.56-14.45c1.41-2.37,2.79-4.7,4.14-6.99-7.07-21.79-13.17-43.89-18.1-63.4-12.82,18.61-26.83,39.48-41.09,61.6-1.43,6.56-2.71,13.2-3.83,19.89,5.49,14.42,12.99,33.42,22.04,54.66,11.23-21.21,21.29-39.52,28.28-51.31Z"/><path class="cls-9" d="m566.69,104.03c-10.96-15.67-21.5-30.4-31.31-43.86-4.96,14.65-11.32,31.99-18.92,51.06,9.65,15.77,21.04,34.9,35.43,59.16,6.86-22.02,12.69-43.97,17.3-62.78-.84-1.2-1.67-2.4-2.5-3.58Z"/><path class="cls-7" d="m547.52,184.01c-14.6-24.63-26.24-44.23-36.06-60.41-8.94,21.76-19.33,45.36-30.95,69.53.27.55.53,1.09.8,1.64,10.58,21.7,22.15,44.05,33.68,65.75,4.85-9.07,9.19-17.68,12.85-25.6,7.14-15.47,13.74-33,19.68-50.9Z"/><path class="cls-8" d="m571.9,204.16c6.99,11.79,17.05,30.11,28.28,51.31,9.06-21.27,16.56-40.29,22.06-54.71-1.11-6.64-2.37-13.22-3.79-19.74-14.27-22.16-28.32-43.06-41.15-61.7-4.94,19.51-11.03,41.61-18.1,63.4,1.36,2.29,2.74,4.62,4.14,6.99l8.56,14.45Z"/><path class="cls-2" d="m508.85,271.76c-11.64-21.79-23.41-44.36-34.29-66.43-10.88,22.06-22.65,44.64-34.29,66.43,10.21,18.35,22.08,38.13,34.29,57.69,12.21-19.56,24.08-39.34,34.29-57.69Z"/><path class="cls-3" d="m432.06,414.26c10.95,17.18,21.2,32.41,29.47,44.48,4.36.34,8.76.51,13.21.51s8.6-.17,12.84-.49c8.27-12.08,18.52-27.31,29.49-44.51-12.63-18.71-27.57-41.26-42.5-64.74-14.93,23.49-29.87,46.03-42.5,64.74Z"/><path class="cls-24" d="m625.73,304.74c1.35-11.91,2.07-24.53,2.07-37.89,0-14.8-.87-29.64-2.52-44.32-5.24,13.26-11.53,28.64-18.68,45.14,6.24,11.91,12.71,24.45,19.12,37.08Z"/><path class="cls-25" d="m523.6,423.91c-7.9,12.3-15.37,23.51-21.93,33.18,12.96-2.14,25.35-5.89,36.96-11.28-4.17-6.03-9.28-13.44-15.04-21.91Z"/><path class="cls-23" d="m323.85,222.54c-1.66,14.68-2.53,29.51-2.53,44.3,0,13.36.72,25.97,2.08,37.88,6.41-12.62,12.88-25.16,19.12-37.06-7.14-16.49-13.42-31.86-18.67-45.11Z"/><path class="cls-22" d="m447.4,457.03c-6.55-9.66-14-20.85-21.88-33.12-5.73,8.42-10.8,15.8-14.96,21.81,11.58,5.39,23.93,9.15,36.85,11.31Z"/><path class="cls-12" d="m376.59,93.64c11.64-16.56,22.78-32.04,33.03-46.03-1.86-5.88-3.41-11.14-4.65-15.7-11.93,11.51-22.96,25.7-32.84,41.92,1.23,5.67,2.72,12.36,4.45,19.81Z"/><path class="cls-18" d="m572.53,93.64c1.76-7.55,3.27-14.32,4.51-20.04-9.87-16.22-20.89-30.41-32.83-41.9-1.25,4.61-2.83,9.95-4.71,15.91,10.25,13.99,21.4,29.46,33.03,46.03Z"/><path class="cls-20" d="m428.09,271.83c-6.34-11.58-11.96-22.53-16.53-32.43-6.14-13.29-11.87-28.05-17.14-43.26l-7.99,13.48c-7.6,12.83-19.2,34.09-32.03,58.52,9.87,22.57,21.27,47.02,33.7,70.85.55,1.05,1.1,2.09,1.65,3.14,2.08-3.79,4.23-7.71,6.46-11.77,9.84-17.92,20.77-37.82,31.88-58.53Z"/><path class="cls-21" d="m468.24,339.51c-11.94-19.01-23.66-38.37-33.96-56.57-10,18.57-19.78,36.38-28.68,52.57-3.35,6.09-6.63,12.07-9.79,17.85,9.77,17.82,20.07,35.1,30.01,51,12.79-19,27.69-41.57,42.42-64.86Z"/><path class="cls-13" d="m580.74,105.4c9.53,13.72,19.31,28.08,29.15,42.87-6.71-21.82-15.13-42.36-24.96-60.8-1.24,5.47-2.64,11.49-4.19,17.93Z"/><path class="cls-19" d="m543.52,335.51c-8.89-16.2-18.67-34-28.68-52.57-10.3,18.2-22.02,37.56-33.96,56.57,14.73,23.29,29.63,45.85,42.42,64.86,9.94-15.9,20.24-33.18,30.01-51-3.17-5.79-6.45-11.76-9.79-17.85Z"/><path class="cls-15" d="m623.02,323.24c-7.26-14.44-14.73-29.04-21.96-42.95-9.13,20.54-19.43,42.34-30.56,63.65-1.64,3.15-3.31,6.29-5,9.41,11.44,20.96,20.07,37.14,25.68,48.83,14.91-20.53,25.96-46.75,31.83-78.95Z"/><path class="cls-16" d="m559.4,364.5c-9.72,17.4-19.84,34.18-29.53,49.57,7.2,10.61,13.49,19.75,18.39,26.81,13.14-7.45,25.11-17.2,35.54-29.33-4.99-10.93-13.8-27.57-24.4-47.05Z"/><path class="cls-14" d="m419.26,414.07c-9.69-15.38-19.81-32.16-29.53-49.57-10.55,19.4-19.34,35.98-24.33,46.92,10.44,12.13,22.41,21.89,35.56,29.35,4.89-7.05,11.15-16.15,18.31-26.7Z"/><path class="cls-17" d="m594.72,268.14c-12.83-24.43-24.43-45.69-32.03-58.52l-7.99-13.48c-5.27,15.21-11,29.97-17.14,43.26-4.57,9.9-10.19,20.85-16.53,32.43,11.11,20.71,22.04,40.61,31.88,58.53,2.23,4.06,4.38,7.98,6.46,11.77.55-1.04,1.1-2.09,1.65-3.14,12.44-23.82,23.84-48.27,33.7-70.85Z"/><path class="cls-27" d="m479.98,56.08c9.22,12.3,18.18,25.67,29.48,43.79,7.59-19.41,13.67-36.51,18.17-50.3-14.42-19.6-26.88-35.99-36.19-47.99-3.79-.8-7.63-1.34-11.5-1.59l.04,56.08Z"/><path class="cls-35" d="m439.66,99.88c11.3-18.12,20.26-31.49,29.48-43.79l.04-56.06c-3.9.27-7.75.83-11.57,1.66-9.31,11.99-21.74,28.35-36.13,47.9,4.5,13.79,10.59,30.89,18.17,50.3Z"/><path class="cls-28" d="m531.61,36.91c1.54-5.16,2.76-9.58,3.64-13.18-8.22-6.72-16.81-12.19-25.7-16.18,6.51,8.52,13.94,18.38,22.06,29.36Z"/><path class="cls-26" d="m383.61,353.35c-1.69-3.13-3.35-6.26-5-9.41-11.13-21.31-21.43-43.12-30.56-63.65-7.22,13.9-14.69,28.49-21.94,42.91,5.88,32.15,16.95,58.34,31.87,78.86,5.61-11.68,14.23-27.82,25.62-48.71Z"/><path class="cls-36" d="m368.38,105.4c-1.53-6.35-2.91-12.29-4.14-17.7-9.77,18.32-18.16,38.7-24.86,60.35,9.78-14.71,19.52-29,29-42.65Z"/><path class="cls-37" d="m417.51,36.91c8.05-10.87,15.42-20.65,21.88-29.12-8.81,4.01-17.32,9.46-25.47,16.15.88,3.56,2.07,7.91,3.59,12.97Z"/></g><g><path class="cls-39" d="m0,533.59h25.22v180.03H0v-180.03Z"/><path class="cls-41" d="m106.83,625.09c0-57.62,39.32-94.47,91.5-94.47,29.18,0,53.42,12.86,67.51,28.93l-12.36,11.13c-12.61-21.02-32.4-36.11-56.38-36.11-37.84,0-62.57,36.11-62.57,84.33,0,54.65,29.92,86.8,69.74,86.8,21.51,0,45.01-9.15,61.08-33.88l2.97,1.73c-16.32,26.46-41.55,43.03-75.18,43.03-49.46,0-86.31-35.86-86.31-91.5Z"/><path class="cls-40" d="m331.87,625.33c0-57.87,41.55-94.71,95.21-94.71s91.99,34.37,91.99,91.25-41.55,94.71-95.21,94.71-91.99-34.37-91.99-91.25Zm159.51-.74c0-53.91-27.45-90.02-66.28-90.02s-65.53,35.12-65.53,88.04,27.45,90.02,67.02,90.02,64.79-34.87,64.79-88.04Z"/><path class="cls-38" d="m728.78,533.59c-3.21,19.78-4.95,44.02-4.95,78.64v104.36h-2.23l-114.5-158.52v76.91c0,34.62,1.48,58.86,4.95,78.64h-14.84c3.21-19.78,4.95-44.02,4.95-78.64v-83.83l-12.12-16.82v-.74h29.92l98.92,139.48v-60.84c0-34.62-1.48-58.86-4.95-78.64h14.84Z"/><path class="cls-32" d="m897.93,654.51h-70.23c-10.88,28.93-13.85,44.51-14.59,59.1h-17.06c11.87-24.73,21.27-47.73,34.13-78.89l43.03-105.1h.99l74.93,183.99h-27.45l-23.74-59.1Zm-1.73-4.45l-33.38-82.6-27.95,69-5.44,13.6h66.77Z"/><g><path class="cls-30" d="m244.23,798.19c3.22,0,6.2.52,8.93,1.56,2.73,1.04,5.49,2.76,8.27,5.16l2.54-5.16c-2.46-2.46-5.38-4.3-8.77-5.53-3.39-1.23-7.07-1.84-11.06-1.84-5.57,0-10.38,1.2-14.42,3.61-4.04,2.4-7.16,5.82-9.34,10.24-2.18,4.42-3.28,9.72-3.28,15.89s1.09,11.5,3.28,15.98c2.18,4.48,5.3,7.92,9.34,10.32,4.04,2.4,8.85,3.6,14.42,3.6,3.99,0,7.67-.61,11.06-1.84,3.39-1.23,6.31-3.07,8.77-5.53l-2.54-5.16c-2.79,2.4-5.55,4.12-8.27,5.16-2.73,1.04-5.71,1.56-8.93,1.56-6.45,0-11.42-2.09-14.91-6.27-3.5-4.18-5.24-10.12-5.24-17.82s1.76-13.55,5.28-17.7c3.52-4.15,8.48-6.23,14.87-6.23Z"/><path class="cls-34" d="m324.92,793.03l-25.64,58.33h6.96l6.44-14.99h30.49l6.42,14.99h6.88l-25.64-58.33h-5.9Zm-9.85,37.77l12.88-29.99,12.83,29.99h-25.71Z"/><path class="cls-31" d="m433.6,797.37c-3.36-2.89-8.04-4.34-14.05-4.34h-23.27v58.33h6.72v-25.64h16.55c5.95,0,10.62-1.47,14.01-4.42,3.39-2.95,5.08-6.94,5.08-11.96s-1.68-9.07-5.04-11.96Zm-4.87,19.95c-2.18,1.88-5.44,2.83-9.75,2.83h-15.98v-21.55h15.98c4.31,0,7.56.93,9.75,2.79,2.18,1.86,3.28,4.51,3.28,7.95s-1.09,6.1-3.28,7.99Z"/><rect class="cls-29" x="480.75" y="793.03" width="6.72" height="58.33"/><polygon class="cls-33" points="526.8 798.76 547.11 798.76 547.11 851.36 553.91 851.36 553.91 798.76 574.23 798.76 574.23 793.03 526.8 793.03 526.8 798.76"/><path class="cls-11" d="m626.59,793.03l-25.64,58.33h6.96l6.44-14.99h30.49l6.42,14.99h6.88l-25.64-58.33h-5.9Zm-9.85,37.77l12.88-29.99,12.83,29.99h-25.71Z"/><polygon class="cls-10" points="704.66 845.62 704.66 793.03 697.94 793.03 697.94 851.36 733.91 851.36 733.91 845.62 704.66 845.62"/></g></g></g></g></svg>